<svg id="Layer_2" enable-background="new 0 0 512 512" height="512" viewBox="0 0 512 512" width="512" xmlns="http://www.w3.org/2000/svg"><g><g><path d="m256 502 102.901-67.669c50.621-33.288 81.099-89.809 81.099-150.394v-193.937c-127-11-184-80-184-80s-57 69-184 80v193.937c0 60.585 30.478 117.106 81.099 150.395z" fill="#6e83b7"/></g><g><path d="m169.583 409.266c-42.318-27.829-67.583-74.681-67.583-125.329v-167.373c76.832-12.06 127.248-43.741 154-65.494 26.752 21.753 77.169 53.434 154 65.494v167.372c0 50.648-25.265 97.5-67.582 125.329l-86.418 56.829z" fill="#edeff1"/></g><g><g><g><circle cx="256" cy="280" fill="#6e83b7" r="120"/></g></g><g><g><path d="m376 280c0 4.141-.21 8.234-.62 12.268-2.039 20.049-9.01 38.639-19.683 54.537-17.697 26.361-45.576 45.317-78.005 51.239-7.038 1.283-14.287 1.956-21.692 1.956s-14.654-.673-21.693-1.956c-32.429-5.922-60.307-24.878-78.005-51.239-10.673-15.898-17.644-34.488-19.683-54.537-.41-4.034-.62-8.127-.62-12.268 0-29.288 10.493-56.122 27.922-76.956 12.156-14.532 27.693-26.141 45.4-33.624 14.347-6.064 30.123-9.42 46.679-9.42s32.332 3.356 46.678 9.42c17.707 7.483 33.244 19.093 45.4 33.624 17.429 20.834 27.922 47.668 27.922 76.956z" fill="#6e83b7"/></g></g><g><g><circle cx="256" cy="280" fill="#edeff1" r="112.195"/></g></g><path d="m302.331 273.999 32.134-12.096 40.915 30.365c.41-4.034.62-8.127.62-12.268 0-29.288-10.493-56.122-27.922-76.956l-17.583 49.93-31.158 11.728-38.459-28.363v-36.092l41.8-30.827c-14.346-6.064-30.122-9.42-46.678-9.42s-32.332 3.356-46.678 9.419l41.8 30.827v36.092l-38.459 28.363-31.158-11.728-17.583-49.93c-17.429 20.835-27.922 47.669-27.922 76.957 0 4.141.21 8.234.62 12.268l40.915-30.365 32.134 12.096 14.501 45.919-16.71 24.102-51.156 2.785c17.698 26.361 45.576 45.317 78.005 51.239l-18.238-49.321 16.194-23.357h47.472l16.194 23.357-18.238 49.321c32.429-5.922 60.307-24.878 78.005-51.239l-51.156-2.785-16.71-24.102z" fill="#6e83b7"/></g><g><path d="m492 473h-109l52-38v-42h57l-20 40z" fill="#ffe352"/></g><g><path d="m383 473v-38h52z" fill="#ffb236"/></g><g><path d="m256 355h-179v80h179 179v-80z" fill="#ffe352"/></g><g><path d="m20 473h109l-52-38v-42h-57l20 40z" fill="#ffe352"/></g><g><path d="m129 473v-38h-52z" fill="#ffb236"/></g><g><g><path d="m306 154h-20c-8.271 0-15-6.729-15-15v-31c0-8.271 6.729-15 15-15h20v10h-20c-2.757 0-5 2.243-5 5v31c0 2.757 2.243 5 5 5h20z" fill="#6e83b7"/></g><g fill="#6e83b7"><path d="m241 103v-10h-35v61h10v-28h15v-10h-15v-13z"/><g><circle cx="256" cy="144" r="5"/><path d="m256 154c-5.514 0-10-4.486-10-10s4.486-10 10-10 10 4.486 10 10-4.486 10-10 10zm0-10.006v.006z"/></g></g></g></g></svg>