<svg id="Layer_2" enable-background="new 0 0 512 512" height="512" viewBox="0 0 512 512" width="512" xmlns="http://www.w3.org/2000/svg"><g><g><g><path d="m256 303h44l98.846 21.665c27.533 6.035 47.154 30.421 47.154 58.609v85.726h-66v33h-124-124v-33h-66v-85.726c0-28.187 19.621-52.574 47.154-58.609l98.846-21.665z" fill="#6e83b7"/></g><g><path d="m66 469h66v33h-66z" fill="#ffd3b3" transform="matrix(-1 0 0 -1 198 971)"/></g><g><path d="m66 449h66v20h-66z" fill="#466089" transform="matrix(-1 0 0 -1 198 918)"/></g><g><path d="m380 449h66v20h-66z" fill="#466089"/></g><g><path d="m380 469h66v33h-66z" fill="#ffd3b3"/></g><g><path d="m212 267v28l44 52 44-52v-28z" fill="#ffd3b3"/></g><g><path d="m212 285.188c13.499 5.851 28.376 9.812 44 9.812s30.501-3.961 44-9.812v-18.188h-88z" fill="#fcb98b"/></g><g><path d="m347 126v62c0 50.258-40.742 91-91 91-50.258 0-91-40.742-91-91v-62z" fill="#ffd3b3"/></g><g><path d="m151 176h14v-50h-14c-5.523 0-10 4.477-10 10v30c0 5.523 4.477 10 10 10z" fill="#ffd3b3"/></g><g><path d="m361 176h-14v-50h14c5.523 0 10 4.477 10 10v30c0 5.523-4.477 10-10 10z" fill="#ffd3b3"/></g></g><g><path d="m256 347-51 40-10.996-80.056 17.996-11.944z" fill="#466089"/></g><g><path d="m256 347 51 40 10.996-80.056-17.996-11.944z" fill="#466089"/></g><g><path d="m347 180.182-18.909-54.182h18.909z" fill="#6e83b7"/></g><g><path d="m165 180.182 18.909-54.182h-18.909z" fill="#6e83b7"/></g><g><path d="m347 106v-21c0-44.183-35.817-80-80-80h-22c-44.183 0-80 35.817-80 80v21z" fill="#80d6fb"/></g><g><path d="m185 101v-16c0-33.084 26.916-60 60-60h22c33.084 0 60 26.916 60 60v16z" fill="#edeff1"/></g><g><path d="m256 94c-33.189.05-66.387 3.93-100 12v20h200c0-7 0-13 0-20-33.613-8.07-66.811-11.95-100-12z" fill="#46bee8"/></g><g><path d="m249 347h14v59h-14z" fill="#466089"/></g><path d="m331.845 309.98-3.499 28.941c-4.479 37.062-24.354 70.927-54.528 92.912l-17.818 12.98-17.818-12.981c-30.174-21.984-50.049-55.85-54.528-92.912l-3.499-28.941-9.813 2.151 3.384 27.99c4.812 39.807 26.158 76.181 58.567 99.793l23.707 17.274 23.707-17.272c32.409-23.613 53.756-59.986 58.567-99.793l3.384-27.99z" fill="#466089"/><g><path d="m256 442c-11.046 0-20 8.954-20 20s8.954 20 20 20c1.674 0 3.292-.228 4.846-.616l5.154 20.616h10v-40c0-11.046-8.954-20-20-20z" fill="#ffe352"/></g><g><circle cx="256" cy="462" fill="#ffb236" r="13"/></g></g></svg>