<svg id="Layer_2" enable-background="new 0 0 512 512" height="512" viewBox="0 0 512 512" width="512" xmlns="http://www.w3.org/2000/svg"><g><g><path d="m256 303h44l98.846 21.665c27.533 6.035 47.154 30.421 47.154 58.609v85.726h-66v33h-124-124v-33h-66v-85.726c0-28.187 19.621-52.574 47.154-58.609l98.846-21.665z" fill="#ffb0aa"/></g><g><path d="m398.846 324.665-98.846-21.665h-44-44l-98.846 21.665c-27.533 6.035-47.154 30.421-47.154 58.609v65.726h20v-65.726c0-18.648 13.221-35.08 31.436-39.073l96.73-21.201h83.668l96.73 21.201c18.215 3.992 31.436 20.425 31.436 39.073v65.726h20v-65.726c0-28.188-19.621-52.574-47.154-58.609z" fill="#ff7b7b"/></g><g><path d="m398.846 324.665-98.846-21.665h-44-44l-98.846 21.665c-27.533 6.035-47.154 30.421-47.154 58.609v65.726h20v-65.726c0-18.648 13.221-35.08 31.436-39.073l96.73-21.201h83.668l96.73 21.201c18.215 3.992 31.436 20.425 31.436 39.073v65.726h20v-65.726c0-28.188-19.621-52.574-47.154-58.609z" fill="#ff7b7b"/></g><g><path d="m66 469h66v33h-66z" fill="#ffd3b3" transform="matrix(-1 0 0 -1 198 971)"/></g><g><path d="m66 449h66v20h-66z" fill="#edeff1" transform="matrix(-1 0 0 -1 198 918)"/></g><g><path d="m380 469h66v33h-66z" fill="#ffd3b3"/></g><g><path d="m300 303h-88l-23.78 5.212c2.673 35.067 32.04 62.788 67.78 62.788s65.107-27.721 67.78-62.788z" fill="#edeff1"/></g><g><path d="m212 267v36c0 24.301 19.699 44 44 44s44-19.699 44-44v-36z" fill="#ffd3b3"/></g><g><path d="m212 285.188c13.499 5.851 28.376 9.812 44 9.812s30.501-3.961 44-9.812v-18.188h-88z" fill="#fcb98b"/></g><g><path d="m347 90v98c0 50.258-40.742 91-91 91-50.258 0-91-40.742-91-91v-98z" fill="#ffd3b3"/></g><g><path d="m165 176v-97c0-20.987 17.013-38 38-38v57.382c0 4.999-1.249 9.919-3.634 14.313z" fill="#466089"/></g><g><path d="m151 176h14v-50h-14c-5.523 0-10 4.477-10 10v30c0 5.523 4.477 10 10 10z" fill="#ffd3b3"/></g><g><path d="m361 176h-14v-50h14c5.523 0 10 4.477 10 10v30c0 5.523-4.477 10-10 10z" fill="#ffd3b3"/></g><g><path d="m380 449h66v20h-66z" fill="#edeff1"/></g><g><circle cx="334" cy="453" fill="#ffe352" r="30"/></g><g fill="#edeff1"><path d="m166 423h-10v5c0 4.411-3.589 8-8 8v10c2.876 0 5.586-.695 8-1.899v28.899h-8v10h26v-10h-8z"/><path d="m200 473v-50h-10v5c0 4.411-3.589 8-8 8v10c2.876 0 5.586-.695 8-1.899v28.899h-8v10h26v-10z"/></g><g><path d="m347 176v-97c0-20.987-17.013-38-38-38v57.382c0 4.999 1.249 9.919 3.634 14.313z" fill="#6e83b7"/></g><g><path d="m285 116h-86c-33.137 0-60-26.863-60-60v-46h140c16.569 0 30 13.431 30 30v52c0 13.255-10.745 24-24 24z" fill="#6e83b7"/></g></g></svg>