<svg id="Layer_2" enable-background="new 0 0 512 512" height="512" viewBox="0 0 512 512" width="512" xmlns="http://www.w3.org/2000/svg"><g><g><path d="m342 424h-172c-88.365 0-160-71.634-160-160v-94h492v94c0 88.366-71.634 160-160 160z" fill="#6e83b7"/></g><g><path d="m219.5 157.5h73v150h-73z" fill="#466089" transform="matrix(0 1 -1 0 488.5 -23.5)"/></g><g><path d="m342 330h-172c-88.365 0-160-71.634-160-160 0-88.366 71.634-160 160-160h172c88.365 0 160 71.634 160 160 0 88.366-71.634 160-160 160z" fill="#edeff1"/></g><g><path d="m170 285c-66.168 0-120-53.832-120-120s53.832-120 120-120h172c66.168 0 120 53.832 120 120s-53.832 120-120 120z" fill="#6e83b7"/></g><g><path d="m342 166h-172c-44.118 0-82.746 23.936-103.595 59.5 20.849 35.564 59.477 59.5 103.595 59.5h172c44.118 0 82.746-23.936 103.595-59.5-20.849-35.564-59.477-59.5-103.595-59.5z" fill="#98ca69"/></g><g><g><path d="m462 165c0 2.75-.09 5.47-.27 8.17-14.57-47.21-58.31-80.17-108.88-80.17h-193.7c-50.57 0-94.31 32.96-108.88 80.17-.18-2.7-.27-5.42-.27-8.17 0-8.68.93-17.15 2.7-25.31 6.8-10.74 15.26-20.5 25.1-28.84 22.71-19.25 51.61-29.85 81.35-29.85h193.7c29.74 0 58.64 10.6 81.35 29.85 9.84 8.34 18.3 18.1 25.1 28.84 1.77 8.16 2.7 16.63 2.7 25.31z" fill="#466089"/></g></g><g><g><path d="m460.31 185.03c-.05.33-.1.65-.16.97-.99 5.59-2.36 11.05-4.11 16.34-18.69-39.4-59.08-65.34-103.06-65.34h-193.96c-43.98 0-84.37 25.94-103.06 65.34-1.75-5.29-3.12-10.75-4.11-16.34-.06-.32-.11-.64-.16-.97 8.99-14.62 20.93-27.3 35.24-37.32 21.22-14.86 46.15-22.71 72.09-22.71h193.96c25.94 0 50.87 7.85 72.09 22.71 14.31 10.02 26.25 22.7 35.24 37.32z" fill="#466089"/></g></g><g><g><path d="m175 285h10v29h-10z" fill="#d3d3d3"/></g><g><path d="m326 285h10v29h-10z" fill="#d3d3d3"/></g><g><path d="m251 285h10v29h-10z" fill="#d3d3d3"/></g><g><path d="m165 180h182v105h-182z" fill="#6e83b7"/></g><g><path d="m213.5 151.5h85v162h-85z" fill="#466089" transform="matrix(0 1 -1 0 488.5 -23.5)"/></g></g><g><path d="m181 354h150v40h-150z" fill="#d3d3d3"/></g><g><path d="m239.5 410.5h108v75h-108z" fill="#edeff1" transform="matrix(0 1 -1 0 741.5 154.5)"/></g><g><path d="m249.5 420.5h88v55h-88z" fill="#80d6fb" transform="matrix(0 1 -1 0 741.5 154.5)"/></g><g><path d="m164.5 410.5h108v75h-108z" fill="#edeff1" transform="matrix(0 1 -1 0 666.5 229.5)"/></g><g><path d="m174.5 420.5h88v55h-88z" fill="#80d6fb" transform="matrix(0 1 -1 0 666.5 229.5)"/></g><g><path d="m252 394h8v108h-8z" fill="#d3d3d3"/></g></g></svg>